<mxfile host="app.diagrams.net" modified="2023-06-22T23:58:22.159Z" agent="Mozilla/5.0 (Macintosh; Intel Mac OS X 10_15_7) AppleWebKit/537.36 (KHTML, like Gecko) Chrome/114.0.0.0 Safari/537.36" version="21.1.0" etag="Ev9PbwcTyWTTzZX4YTxS" type="github">
  <diagram name="Page-1" id="R2I6m5uMjk3Epom83iA8">
    <mxGraphModel>
      <root>
        <mxCell id="0" />
        <mxCell id="1" parent="0" />
      </root>
    </mxGraphModel>
  </diagram>
</mxfile>
